<svg width="25" height="24" viewBox="0 0 25 24" fill="none" xmlns="http://www.w3.org/2000/svg">
<path d="M11.9996 22L16.5496 10H18.6496L23.1996 22H21.0996L20.0496 18.95H15.1996L14.0996 22H11.9996ZM15.7996 17.2H19.3996L17.6496 12.25H17.5496L15.7996 17.2ZM4.09961 19L2.69961 17.6L7.74961 12.55C7.11628 11.85 6.56194 11.125 6.08661 10.375C5.61128 9.625 5.19894 8.83333 4.84961 8H6.94961C7.24961 8.6 7.57061 9.14167 7.91261 9.625C8.25461 10.1083 8.66694 10.6167 9.14961 11.15C9.88294 10.35 10.4913 9.529 10.9746 8.687C11.4579 7.845 11.8663 6.94933 12.1996 6H1.09961V4H8.09961V2H10.0996V4H17.0996V6H14.1996C13.8496 7.18333 13.3746 8.33333 12.7746 9.45C12.1746 10.5667 11.4329 11.6167 10.5496 12.6L12.9496 15.05L12.1996 17.1L9.09961 14L4.09961 19Z" fill="#008DDD"/>
</svg>
