<svg width="25" height="24" viewBox="0 0 25 24" fill="none" xmlns="http://www.w3.org/2000/svg">
<path d="M9.09961 17V18C9.09961 18.7956 9.41568 19.5587 9.97829 20.1213C10.5409 20.6839 11.304 21 12.0996 21C12.8953 21 13.6583 20.6839 14.2209 20.1213C14.7835 19.5587 15.0996 18.7956 15.0996 18V17M10.0996 5C10.0996 4.46957 10.3103 3.96086 10.6854 3.58579C11.0605 3.21071 11.5692 3 12.0996 3C12.63 3 13.1387 3.21071 13.5138 3.58579C13.8889 3.96086 14.0996 4.46957 14.0996 5C15.248 5.54303 16.227 6.38833 16.9317 7.4453C17.6363 8.50227 18.04 9.73107 18.0996 11V14C18.1749 14.6217 18.395 15.2171 18.7424 15.7381C19.0898 16.2592 19.5547 16.6914 20.0996 17H4.09961C4.64455 16.6914 5.10942 16.2592 5.4568 15.7381C5.80417 15.2171 6.02435 14.6217 6.09961 14V11C6.15917 9.73107 6.56291 8.50227 7.26756 7.4453C7.97221 6.38833 8.9512 5.54303 10.0996 5Z" stroke="#FFBF35" stroke-width="2" stroke-linecap="round" stroke-linejoin="round"/>
</svg>
