<svg width="25" height="24" viewBox="0 0 25 24" fill="none" xmlns="http://www.w3.org/2000/svg">
<g clip-path="url(#clip0_1002_44)">
<path d="M17.5996 8C17.5996 8 19.0996 9.5 19.0996 12C19.0996 14.5 17.5996 16 17.5996 16M20.5996 5C20.5996 5 23.0996 7.5 23.0996 12C23.0996 16.5 20.5996 19 20.5996 19M6.59961 8C6.59961 8 5.09961 9.5 5.09961 12C5.09961 14.5 6.59961 16 6.59961 16M3.59961 5C3.59961 5 1.09961 7.5 1.09961 12C1.09961 16.5 3.59961 19 3.59961 19" stroke="#FFBF35" stroke-width="2" stroke-linecap="round" stroke-linejoin="round"/>
<path d="M12.0996 13C12.3648 13 12.6192 12.8946 12.8067 12.7071C12.9943 12.5196 13.0996 12.2652 13.0996 12C13.0996 11.7348 12.9943 11.4804 12.8067 11.2929C12.6192 11.1054 12.3648 11 12.0996 11C11.8344 11 11.58 11.1054 11.3925 11.2929C11.205 11.4804 11.0996 11.7348 11.0996 12C11.0996 12.2652 11.205 12.5196 11.3925 12.7071C11.58 12.8946 11.8344 13 12.0996 13Z" fill="#FFBF35" stroke="#FFBF35" stroke-width="2" stroke-linecap="round" stroke-linejoin="round"/>
</g>
<defs>
<clipPath id="clip0_1002_44">
<rect width="24" height="24" fill="white" transform="translate(0.0996094)"/>
</clipPath>
</defs>
</svg>
