<svg width="16" height="16" viewBox="0 0 16 16" fill="none" xmlns="http://www.w3.org/2000/svg">
<path d="M10.9989 9.66667H10.3406L10.1073 9.44167C10.9522 8.46169 11.4165 7.21058 11.4156 5.91667C11.4156 4.84535 11.0979 3.7981 10.5027 2.90733C9.90755 2.01656 9.06158 1.3223 8.07181 0.912322C7.08205 0.502347 5.99294 0.395079 4.9422 0.604082C3.89147 0.813085 2.92632 1.32897 2.16878 2.08651C1.41125 2.84404 0.895361 3.8092 0.686358 4.85993C0.477354 5.91066 0.584622 6.99977 0.994597 7.98954C1.40457 8.9793 2.09884 9.82527 2.98961 10.4205C3.88037 11.0157 4.92763 11.3333 5.99894 11.3333C7.34061 11.3333 8.57394 10.8417 9.52394 10.025L9.74894 10.2583V10.9167L13.9156 15.075L15.1573 13.8333L10.9989 9.66667ZM5.99894 9.66667C3.92394 9.66667 2.24894 7.99167 2.24894 5.91667C2.24894 3.84167 3.92394 2.16667 5.99894 2.16667C8.07394 2.16667 9.74894 3.84167 9.74894 5.91667C9.74894 7.99167 8.07394 9.66667 5.99894 9.66667Z" fill="#687685"/>
</svg>
