<svg width="29" height="28" viewBox="0 0 29 28" fill="none" xmlns="http://www.w3.org/2000/svg">
<path d="M4.16699 10.5V22.1667C4.16699 22.7855 4.41282 23.379 4.85041 23.8166C5.28799 24.2542 5.88149 24.5 6.50033 24.5H22.8337C23.4525 24.5 24.046 24.2542 24.4836 23.8166C24.9212 23.379 25.167 22.7855 25.167 22.1667V10.5" stroke="#FFBF35" stroke-width="1.75"/>
<path d="M24.566 3.5H19.9087L20.492 9.33333C20.492 9.33333 21.6587 10.5 23.4087 10.5C24.3273 10.5012 25.2148 10.1668 25.9042 9.55967C25.9771 9.49156 26.0314 9.40601 26.062 9.31109C26.0926 9.21617 26.0985 9.11501 26.0792 9.01717L25.2555 4.08333C25.228 3.92034 25.1436 3.77236 25.0174 3.66559C24.8912 3.55883 24.7313 3.50017 24.566 3.5Z" stroke="#FFBF35" stroke-width="1.75"/>
<path d="M19.9087 3.5L20.492 9.33333C20.492 9.33333 19.3254 10.5 17.5754 10.5C15.8254 10.5 14.6587 9.33333 14.6587 9.33333V3.5H19.9087Z" stroke="#FFBF35" stroke-width="1.75"/>
<path d="M14.659 3.5V9.33333C14.659 9.33333 13.4924 10.5 11.7424 10.5C9.99235 10.5 8.82568 9.33333 8.82568 9.33333L9.40902 3.5H14.659Z" stroke="#FFBF35" stroke-width="1.75"/>
<path d="M9.40888 3.5H4.75271C4.58704 3.49994 4.42672 3.55864 4.30025 3.66566C4.17379 3.77269 4.08938 3.9211 4.06205 4.0845L3.23955 9.01833C3.22032 9.11618 3.2263 9.21731 3.25691 9.31221C3.28752 9.40711 3.34177 9.49266 3.41455 9.56083C3.79721 9.89917 4.65238 10.5012 5.90888 10.5012C7.65888 10.5012 8.82555 9.3345 8.82555 9.3345L9.40888 3.5Z" stroke="#FFBF35" stroke-width="1.75"/>
</svg>
